<svg width="257" height="39" viewBox="0 0 257 39" fill="none" xmlns="http://www.w3.org/2000/svg">
<path d="M38.9311 17.1026C37.483 18.1837 36.7594 19.6874 36.957 21.2047L36.923 21.1795C37.1261 22.9649 36.2582 24.7261 34.5507 25.9931C32.8433 27.2601 30.4699 27.9041 28.0638 27.7534L28.0978 27.7786C25.1845 27.5774 22.4139 28.7533 21.1706 30.7187C19.9274 32.6841 20.4783 35.0169 22.5482 36.5515C24.618 38.086 27.7623 38.4927 30.4098 37.5684C33.0573 36.644 34.6394 34.5871 34.3656 32.4255L34.4015 32.4507C34.1984 30.6652 35.0663 28.9041 36.7738 27.6371C38.4812 26.3701 40.8546 25.726 43.2607 25.8767L43.2248 25.8515C46.4267 26.0652 49.406 24.6165 50.4201 22.3528C51.4342 20.0892 50.2168 17.6052 47.4799 16.3538C44.7429 15.1025 41.2055 15.4125 38.9368 17.1026H38.9311Z" fill="#5454D4"/>
<path d="M25.0082 24.4759L24.9723 24.4507C27.0183 24.6037 29.0487 24.0668 30.5033 22.9883C31.9579 21.9097 32.6829 20.4034 32.4783 18.8851L32.5142 18.9103C32.3111 17.1248 33.179 15.3637 34.8864 14.0967C36.5939 12.8297 38.9672 12.1857 41.3734 12.3364L41.3375 12.3112C44.2511 12.5142 47.0233 11.3396 48.2685 9.37446C49.5136 7.40935 48.9643 5.07583 46.8951 3.54035C44.8258 2.00486 41.6811 1.59723 39.0329 2.52121C36.3846 3.44519 34.8017 5.50231 35.0753 7.6643L35.0413 7.63769C35.2451 9.42329 34.3774 11.1847 32.6698 12.4519C30.9622 13.719 28.5884 14.3629 26.1821 14.2116L26.2161 14.2383C24.1701 14.0853 22.1397 14.6221 20.6851 15.7007C19.2305 16.7793 18.5055 18.2855 18.7101 19.8038L18.6761 19.7786C18.8786 21.564 18.0104 23.3248 16.3031 24.5917C14.5958 25.8586 12.2229 26.5028 9.81693 26.3526L9.85091 26.3778C6.93736 26.1748 4.16514 27.3494 2.91996 29.3145C1.67479 31.2796 2.22412 33.6131 4.29337 35.1486C6.36263 36.6841 9.50733 37.0917 12.1556 36.1677C14.8038 35.2438 16.3867 33.1866 16.1131 31.0247L16.149 31.0499C15.9459 29.2644 16.8138 27.5033 18.5213 26.2363C20.2287 24.9692 22.602 24.3252 25.0082 24.4759V24.4759Z" fill="#FF7143"/>
<path d="M12.3592 21.6654C13.8075 20.5845 14.5307 19.0805 14.3315 17.5633L14.3673 17.5885C14.1641 15.8025 15.0325 14.0409 16.7408 12.7738C18.4491 11.5067 20.8235 10.863 23.2303 11.0146L23.1945 10.9894C26.107 11.1919 28.8779 10.0173 30.1223 8.05285C31.3667 6.08836 30.8174 3.75576 28.7489 2.22084C26.6804 0.685928 23.537 0.278322 20.8896 1.20174C18.2422 2.12515 16.6594 4.18128 16.9322 6.34252L16.8983 6.31731C17.1014 8.10279 16.2335 9.86391 14.526 11.1309C12.8185 12.3979 10.4452 13.042 8.03906 12.8913L8.07304 12.9165C4.87135 12.7034 1.89267 14.1525 0.879133 16.4161C-0.134401 18.6798 1.08344 21.1635 3.82038 22.4145C6.55732 23.6656 10.0944 23.3554 12.363 21.6654H12.3592Z" fill="#5454D4"/>
<path d="M70.8235 7.69678H76.429V27.9382H70.8235V7.69678Z" fill="#19191B"/>
<path fill-rule="evenodd" clip-rule="evenodd" d="M85.6892 14.197C81.99 15.3436 79.5874 18.0321 79.6035 21.007C79.5841 22.9576 80.6224 24.8321 82.485 26.2086C84.3475 27.5852 86.8778 28.3482 89.5064 28.326C93.5153 28.326 97.1288 26.5324 98.6592 23.7828C100.19 21.0333 99.3351 17.8703 96.4947 15.771C93.6542 13.6717 89.3883 13.0503 85.6892 14.197ZM89.4267 17.9053C91.7854 17.873 93.7386 19.2571 93.8038 21.0069C93.8675 21.8744 93.4394 22.7221 92.6231 23.3449C91.8068 23.9676 90.6767 24.3087 89.5063 24.2855C87.1473 24.2856 85.2287 22.8751 85.2069 21.1247C85.1851 19.3742 87.0681 17.9377 89.4267 17.9053Z" fill="#19191B"/>
<path fill-rule="evenodd" clip-rule="evenodd" d="M121.75 27.2393V14.0746L116.293 14.0718V15.4863C114.962 14.2778 112.938 13.6091 110.837 13.6839C105.712 13.8038 101.641 16.9214 101.641 20.7263C101.641 24.5312 105.712 27.6488 110.837 27.7687C112.938 27.8435 114.962 27.1748 116.293 25.9663V27.2337C116.387 28.07 115.964 28.8925 115.143 29.4695C114.322 30.0464 113.192 30.3152 112.072 30.2C110.3 30.3342 108.602 29.6381 107.812 28.4536L103.029 30.5053C104.9 32.7675 108.318 34.0646 111.885 33.8665C116.854 33.8665 121.75 31.8974 121.75 27.2393ZM113.632 17.5243C115.318 18.0886 116.372 19.357 116.295 20.7284C116.33 21.6139 115.859 22.4691 114.998 23.0828C114.137 23.6964 112.966 24.0112 111.775 23.9496C109.925 23.9512 108.26 23.1181 107.569 21.845C106.877 20.572 107.298 19.1148 108.632 18.164C109.966 17.2133 111.946 16.96 113.632 17.5243Z" fill="#19191B"/>
<path fill-rule="evenodd" clip-rule="evenodd" d="M131.01 14.197C127.311 15.3436 124.908 18.0321 124.924 21.007C124.905 22.9576 125.943 24.8321 127.806 26.2086C129.668 27.5852 132.199 28.3482 134.827 28.326C138.836 28.326 142.45 26.5324 143.98 23.7828C145.511 21.0333 144.656 17.8703 141.816 15.771C138.975 13.6717 134.709 13.0503 131.01 14.197ZM134.748 17.9053C137.106 17.873 139.059 19.2571 139.125 21.0069C139.188 21.8744 138.76 22.7221 137.944 23.3449C137.128 23.9676 135.998 24.3087 134.827 24.2855C132.468 24.2856 130.55 22.8751 130.528 21.1247C130.506 19.3742 132.389 17.9377 134.748 17.9053Z" fill="#19191B"/>
<path fill-rule="evenodd" clip-rule="evenodd" d="M149.42 8.05333C148.164 8.43961 147.344 9.34963 147.344 10.359C147.363 11.7317 148.858 12.8411 150.707 12.8547C152.068 12.8547 153.294 12.2467 153.815 11.3141C154.335 10.3815 154.047 9.30809 153.086 8.59433C152.124 7.88056 150.677 7.66704 149.42 8.05333ZM153.518 14.0747H147.91L147.903 27.9396H153.518V14.0747Z" fill="#19191B"/>
<path fill-rule="evenodd" clip-rule="evenodd" d="M175.307 26.0447C176.983 24.6709 177.852 22.8578 177.721 21.0071C177.853 19.1561 176.984 17.3424 175.308 15.9682C173.631 14.5941 171.285 13.7729 168.79 13.6867C166.687 13.6016 164.644 14.2222 163.224 15.3771V14.0746H157.619V33.4842H163.224V26.6343C164.643 27.7901 166.687 28.4113 168.79 28.3261C171.285 28.2396 173.63 27.4185 175.307 26.0447ZM167.596 17.7906C170.037 17.7603 172.054 19.1961 172.116 21.0071C172.2 21.9071 171.763 22.7912 170.914 23.4371C170.065 24.083 168.886 24.4295 167.671 24.3893C165.23 24.3895 163.245 22.9291 163.224 21.1176C163.203 19.306 165.155 17.821 167.596 17.7906Z" fill="#19191B"/>
<path d="M195.019 23.7787C195.019 26.9676 191.283 28.3261 187.248 28.3261C183.912 28.5503 180.729 27.2431 179.214 25.0265L184.07 22.9748C184.475 24.0067 185.796 24.6884 187.241 24.6105C188.585 24.6105 189.258 24.3052 189.258 23.752C189.258 22.2255 180.065 23.0308 180.065 18.2341C180.065 15.2104 183.504 13.6866 187.39 13.6866C190.365 13.6168 193.156 14.7532 194.675 16.6529L189.892 18.566C189.464 17.8235 188.478 17.3432 187.39 17.3461C186.418 17.3461 185.82 17.6262 185.82 18.122C185.827 19.7032 195.019 18.6486 195.019 23.7787Z" fill="#19191B"/>
<path d="M215.494 14.0747V27.9397H209.889V26.6358C208.577 27.8029 206.591 28.4321 204.548 28.3276C200.773 28.3276 197.565 26.3319 197.565 22.5856V14.0747H203.17V21.9763C203.075 22.6447 203.381 23.3102 204.007 23.7958C204.634 24.2815 205.516 24.538 206.42 24.4972C208.475 24.4972 209.895 23.6107 209.895 21.6416V14.0789L215.494 14.0747Z" fill="#19191B"/>
<path d="M247.636 19.4259V27.9381H242.03V19.7858C242.03 18.3993 241.134 17.5128 239.341 17.5128C237.473 17.5128 236.425 18.4833 236.425 20.1191V27.9381H230.821V19.7858C230.821 18.3993 229.925 17.5128 228.13 17.5128C226.262 17.5128 225.216 18.4833 225.216 20.1191V27.9381H219.611V14.0731H225.216V15.3476C226.397 14.1987 228.282 13.5728 230.223 13.6852C232.174 13.6144 234.032 14.3088 235.117 15.5143C236.38 14.2541 238.426 13.5633 240.536 13.6852C244.826 13.6866 247.636 15.9596 247.636 19.4259Z" fill="#19191B"/>
<path d="M252.377 13.9893C254.674 13.9893 256.537 12.6074 256.537 10.9026C256.537 9.19788 254.674 7.81592 252.377 7.81592C250.08 7.81592 248.217 9.19788 248.217 10.9026C248.217 12.6074 250.08 13.9893 252.377 13.9893Z" fill="#19191B"/>
</svg>
